<svg xmlns="http://www.w3.org/2000/svg" width="1920" height="1080" viewBox="0 0 1920 1080">
  <defs>
    <linearGradient id="bg" x1="0" x2="1" y1="0" y2="1">
      <stop offset="0" stop-color="#004b23" />
      <stop offset="1" stop-color="#6a994e" />
    </linearGradient>
    <radialGradient id="sun" cx="0.85" cy="0.15" r="0.35">
      <stop offset="0" stop-color="#ffe066" stop-opacity="0.9" />
      <stop offset="1" stop-color="#ffe066" stop-opacity="0" />
    </radialGradient>
  </defs>
  <rect width="1920" height="1080" fill="url(#bg)" />
  <rect width="1920" height="1080" fill="url(#sun)" />
  <g fill="#b7efc5" opacity="0.9">
    <ellipse cx="960" cy="820" rx="720" ry="220" />
    <ellipse cx="480" cy="880" rx="360" ry="160" opacity="0.65" />
    <ellipse cx="1440" cy="880" rx="360" ry="160" opacity="0.65" />
  </g>
  <g fill="none" stroke="#f1faee" stroke-width="20" stroke-linecap="round" stroke-linejoin="round" opacity="0.8">
    <path d="M640 720c0-160 120-260 260-260s260 100 260 260" />
    <path d="M720 720v200" />
    <path d="M1200 720v200" />
    <path d="M960 460v460" />
    <path d="M880 540h160" />
    <path d="M700 820h520" />
  </g>
  <g fill="#f1faee" opacity="0.85">
    <rect x="900" y="380" width="120" height="120" rx="60" />
    <rect x="820" y="640" width="280" height="200" rx="120" />
  </g>
  <text x="960" y="960" font-family="'Inter', 'Segoe UI', sans-serif" font-size="120" text-anchor="middle" fill="rgba(255,255,240,0.9)">
    Gardens cared for beautifully
  </text>
</svg>
